<?xml version="1.0" standalone="no"?>
<!DOCTYPE svg PUBLIC "-//W3C//DTD SVG 20010904//EN"
 "http://www.w3.org/TR/2001/REC-SVG-20010904/DTD/svg10.dtd">
<svg version="1.0" xmlns="http://www.w3.org/2000/svg"
 width="260.000000pt" height="260.000000pt" viewBox="0 0 260.000000 260.000000"
 preserveAspectRatio="xMidYMid meet">
<metadata>
Created by potrace 1.14, written by Peter Selinger 2001-2017
</metadata>
<g transform="translate(0.000000,260.000000) scale(0.100000,-0.100000)"
fill="#000000" stroke="none">
<path d="M369 2547 c-5 -6 -4 -298 0 -305 3 -4 39 -8 79 -8 l72 1 -2 155 -3
155 -72 2 c-40 1 -74 1 -74 0z"/>
<path d="M1370 2380 c0 -5 5 -10 11 -10 5 0 7 5 4 10 -3 6 -8 10 -11 10 -2 0
-4 -4 -4 -10z"/>
<path d="M1175 2340 c-3 -5 -1 -10 4 -10 6 0 11 5 11 10 0 6 -2 10 -4 10 -3 0
-8 -4 -11 -10z"/>
<path d="M1310 2346 c0 -2 7 -7 16 -10 8 -3 12 -2 9 4 -6 10 -25 14 -25 6z"/>
<path d="M1390 2339 c0 -5 5 -7 10 -4 6 3 10 8 10 11 0 2 -4 4 -10 4 -5 0 -10
-5 -10 -11z"/>
<path d="M1290 2322 c0 -5 7 -9 15 -9 8 0 12 4 9 9 -3 4 -9 8 -15 8 -5 0 -9
-4 -9 -8z"/>
<path d="M1175 2300 c3 -5 8 -10 11 -10 2 0 4 5 4 10 0 6 -5 10 -11 10 -5 0
-7 -4 -4 -10z"/>
<path d="M1535 2291 c-3 -5 -2 -12 3 -15 5 -3 9 1 9 9 0 17 -3 19 -12 6z"/>
<path d="M1393 2251 c-5 -3 -8 -12 -7 -18 1 -7 2 -20 3 -28 0 -8 7 -12 15 -9
8 3 12 12 9 20 -3 8 0 20 6 27 8 10 7 14 -4 14 -8 0 -18 -3 -22 -6z"/>
<path d="M1399 2132 c-24 -3 -26 -6 -23 -40 2 -20 1 -31 -2 -24 -3 6 -12 12
-20 12 -9 0 -12 -5 -8 -12 6 -10 4 -10 -7 0 -7 6 -17 12 -22 12 -4 0 -5 -6 -1
-12 6 -10 5 -10 -7 -1 -12 10 -18 10 -27 1 -9 -9 -12 -9 -12 0 0 18 -27 14
-40 -5 -11 -17 -11 -17 -6 0 4 12 0 17 -15 17 -14 0 -18 -4 -12 -12 11 -19 13
-39 1 -32 -5 3 -7 9 -4 12 3 3 1 11 -5 19 -10 11 -15 11 -27 1 -11 -9 -14 -9
-9 -1 5 8 -2 11 -22 11 -19 -1 -28 -5 -24 -12 3 -6 0 -5 -8 2 -16 15 -33 16
-23 0 5 -7 3 -8 -7 -2 -20 12 -40 14 -33 3 3 -5 -2 -12 -11 -15 -9 -4 -14 -13
-11 -20 3 -8 0 -13 -6 -11 -6 1 -13 -4 -16 -12 -3 -9 0 -11 8 -6 9 5 11 4 6
-4 -6 -9 -11 -9 -24 1 -13 11 -15 10 -10 -9 5 -17 2 -20 -11 -15 -14 5 -14 3
-3 -10 10 -13 10 -18 1 -24 -8 -4 -9 -3 -5 4 4 7 3 12 -2 12 -5 0 -23 -20 -40
-43 -24 -35 -28 -47 -19 -57 10 -10 7 -10 -12 0 -13 6 -21 8 -17 2 3 -5 -3
-17 -14 -27 -11 -10 -20 -26 -20 -37 0 -10 -5 -18 -11 -18 -5 0 -7 5 -3 12 4
7 3 8 -5 4 -6 -4 -9 -12 -6 -17 4 -5 1 -9 -5 -9 -6 0 -8 -4 -5 -10 3 -5 -2
-10 -12 -10 -14 0 -15 -2 -4 -9 9 -6 10 -11 2 -15 -6 -4 -11 -4 -11 1 0 4 -5
0 -11 -10 -5 -9 -7 -23 -3 -30 5 -7 0 -6 -11 3 -10 8 -16 10 -12 3 4 -6 3 -14
-3 -18 -6 -4 -7 -11 -4 -17 5 -7 1 -9 -9 -5 -11 4 -15 1 -12 -14 4 -17 -6 -24
-29 -20 -5 1 -3 -6 5 -15 13 -15 12 -16 -11 -10 -19 6 -21 5 -10 -3 8 -6 23
-8 32 -5 12 3 15 0 13 -13 -2 -10 -4 -20 -4 -23 -1 -3 -6 2 -11 10 -6 10 -10
11 -10 3 0 -7 -4 -13 -10 -13 -5 0 -9 5 -7 11 1 6 -5 14 -13 16 -12 4 -12 3
-2 -5 8 -5 13 -12 13 -16 -3 -24 0 -28 13 -17 11 9 13 6 14 -14 0 -14 -4 -25
-9 -25 -5 0 -9 5 -9 11 0 5 -5 7 -11 3 -15 -9 11 -25 31 -19 11 3 16 -2 16
-15 0 -23 -7 -25 -24 -8 -9 9 -12 9 -12 0 0 -7 6 -12 13 -12 6 -1 1 -8 -13
-16 -16 -10 -18 -13 -5 -8 11 3 29 8 40 9 11 1 19 9 17 16 -3 11 -1 11 8 2 14
-13 4 -35 -13 -31 -7 1 -22 -3 -35 -10 -12 -7 -28 -10 -34 -6 -7 4 -2 -7 11
-24 12 -18 19 -32 14 -31 -20 3 -27 -2 -13 -11 13 -8 13 -10 -2 -10 -9 0 -19
6 -22 13 -3 6 -3 0 0 -15 6 -28 0 -33 -36 -28 -11 1 -9 -3 5 -15 11 -9 14 -14
7 -10 -7 4 -16 -4 -22 -20 -5 -14 -15 -23 -20 -20 -6 4 -10 3 -9 -2 3 -20 -2
-34 -11 -28 -5 3 -10 -1 -10 -9 0 -9 -5 -16 -12 -16 -6 0 -8 -3 -5 -7 4 -3 -6
-18 -21 -33 -16 -15 -32 -33 -36 -41 -20 -41 -33 -58 -39 -52 -4 3 -7 2 -7 -4
0 -6 -11 -24 -24 -39 -14 -16 -57 -69 -96 -119 -40 -49 -76 -91 -81 -93 -5 -2
-9 -8 -9 -14 0 -5 -27 -42 -60 -82 -72 -84 -68 -80 -108 -135 -39 -53 -40 -64
-7 -51 15 6 25 6 25 0 0 -5 12 -5 30 0 17 5 30 5 30 0 0 -5 13 -5 30 0 17 5
32 5 35 0 3 -6 16 -5 29 0 13 5 26 6 29 3 3 -3 34 -4 69 -4 35 1 72 1 83 1 11
-1 25 -1 30 -1 6 0 35 0 65 1 30 0 63 0 73 0 9 0 24 0 32 0 8 0 22 0 30 0 8 0
22 0 30 0 8 0 22 0 30 0 8 0 23 0 33 0 28 0 136 1 150 1 6 -1 22 -1 35 -1 12
0 43 1 70 2 26 2 47 0 47 -4 0 -4 14 -3 30 2 17 5 30 5 30 2 0 -4 18 -6 40 -4
25 3 40 0 40 -7 0 -6 -5 -11 -10 -11 -6 0 -9 -3 -8 -7 1 -5 -10 -32 -25 -61
-38 -73 -44 -142 -16 -198 11 -24 25 -44 31 -44 6 0 19 -9 29 -21 9 -11 20
-20 23 -20 3 1 7 1 9 0 12 -4 47 -10 67 -12 14 -2 31 -6 38 -10 6 -5 12 -5 12
0 0 4 15 9 34 9 38 1 128 43 120 56 -3 4 0 8 6 8 24 0 48 62 45 119 -2 55 -42
155 -69 174 -20 13 23 37 49 27 13 -5 26 -6 29 -3 7 7 146 6 153 -1 3 -3 13
-1 22 4 10 5 23 5 30 0 8 -4 27 -4 42 0 16 5 29 5 29 0 0 -5 13 -5 30 0 17 5
30 5 30 1 0 -4 27 -4 60 -1 33 3 60 3 60 -1 0 -4 14 -4 30 1 17 5 30 5 30 0 0
-5 13 -5 30 0 17 5 32 5 35 0 3 -6 16 -5 29 0 13 5 26 6 29 3 3 -3 34 -4 69
-4 35 1 72 1 83 1 11 -1 25 -1 30 -1 6 0 35 1 66 2 31 1 60 -1 66 -4 5 -3 15
-2 23 3 8 5 21 5 31 -1 11 -5 20 -5 23 0 3 5 16 7 29 3 21 -5 21 -4 6 14 -9
10 -25 30 -35 43 -10 13 -23 28 -29 35 -10 11 -120 148 -140 174 -5 8 -20 24
-32 37 -13 12 -23 26 -23 31 0 5 -16 26 -36 47 -19 20 -32 37 -28 37 4 0 -3 8
-14 19 -12 10 -22 21 -22 25 0 4 -10 18 -22 31 -38 40 -48 54 -48 65 0 5 -7
10 -15 10 -8 0 -15 7 -15 15 0 8 -4 15 -10 15 -5 0 -10 6 -10 14 0 8 -4 16 -8
18 -4 2 -20 19 -35 39 -18 24 -24 39 -17 47 7 9 7 9 -2 2 -16 -13 -31 -13 -23
0 3 6 1 10 -6 10 -7 0 -10 3 -6 6 3 3 -8 19 -26 35 -17 16 -27 29 -22 29 6 0
4 4 -4 9 -7 5 -10 14 -6 20 5 9 11 7 21 -6 13 -16 13 -15 2 10 -9 23 -13 25
-20 12 -14 -23 -22 -19 -52 30 -16 24 -33 42 -39 38 -5 -3 -7 -1 -4 4 4 6 0
16 -8 23 -8 7 -12 16 -9 21 3 5 -1 9 -8 9 -7 0 -25 17 -40 38 -26 37 -26 38
-7 50 14 9 19 9 19 0 0 -15 13 -2 16 16 1 8 -8 14 -22 14 -13 0 -21 -4 -19 -9
9 -13 -16 -22 -28 -10 -9 9 -8 11 4 6 10 -4 16 0 17 10 1 8 3 22 4 30 1 8 6
15 11 15 5 0 7 -7 4 -15 -4 -8 -2 -17 3 -20 6 -4 10 -3 11 2 0 4 2 18 5 31 2
14 0 21 -6 17 -5 -3 -7 0 -5 7 4 9 -2 14 -16 15 -17 2 -18 -1 -9 -13 9 -10 9
-14 1 -14 -6 0 -11 5 -11 11 0 5 -4 8 -9 5 -4 -3 -7 9 -6 27 4 51 5 53 15 37
6 -9 6 -18 0 -24 -19 -19 -10 -29 10 -11 14 13 17 22 10 34 -5 10 -7 26 -6 37
5 27 -13 46 -38 38 -21 -6 -21 -6 -1 10 20 16 20 16 -2 22 -13 3 -21 10 -18
14 3 5 -6 21 -20 36 -22 23 -27 25 -41 13 -16 -13 -16 -12 -3 10 11 18 11 25
2 28 -7 3 -13 11 -13 18 0 8 -9 17 -20 20 -11 4 -18 10 -15 15 6 10 -22 33
-33 26 -5 -3 -8 6 -6 19 2 19 -3 25 -16 25 -10 0 -22 5 -25 10 -4 7 -12 7 -18
2 -7 -5 -24 -7 -40 -6 -15 2 -25 -1 -22 -6 3 -6 -1 -7 -9 -4 -8 3 -16 20 -18
37 -3 28 -6 32 -29 29z m-248 -89 c13 -16 12 -17 -3 -4 -10 7 -18 15 -18 17 0
8 8 3 21 -13z m-96 -23 c3 -6 -1 -7 -9 -4 -18 7 -21 14 -7 14 6 0 13 -4 16
-10z m-10 -52 c5 4 5 1 1 -6 -6 -10 -11 -10 -22 -1 -8 6 -14 14 -14 16 0 3 6
0 13 -6 8 -6 18 -7 22 -3z m566 -5 c13 -16 12 -17 -3 -4 -10 7 -18 15 -18 17
0 8 8 3 21 -13z m-45 -47 c0 -14 -3 -23 -7 -20 -6 3 -6 22 0 42 3 10 7 -2 7
-22z m-596 10 c0 -2 -7 -7 -16 -10 -8 -3 -12 -2 -9 4 6 10 25 14 25 6z m-25
-78 c5 4 5 1 1 -6 -6 -10 -11 -10 -22 -1 -8 6 -14 14 -14 16 0 3 6 0 13 -6 8
-6 18 -7 22 -3z m623 -13 c-3 -3 -9 2 -12 12 -6 14 -5 15 5 6 7 -7 10 -15 7
-18z m-678 -6 c12 -8 10 -9 -9 -4 -17 5 -22 4 -16 -5 5 -9 4 -11 -4 -6 -6 4
-9 12 -6 17 8 12 16 11 35 -2z m807 -31 c-3 -8 -6 -5 -6 6 -1 11 2 17 5 13 3
-3 4 -12 1 -19z m-777 6 c0 -8 -19 -13 -24 -6 -3 5 1 9 9 9 8 0 15 -2 15 -3z
m51 -7 c-6 -8 -7 -18 -3 -22 4 -5 1 -5 -6 -1 -10 6 -10 11 -1 22 6 8 14 14 16
14 3 0 0 -6 -6 -13z m33 -3 c3 -8 2 -12 -4 -9 -6 3 -10 10 -10 16 0 14 7 11
14 -7z m617 -1 c13 -16 12 -17 -3 -4 -10 7 -18 15 -18 17 0 8 8 3 21 -13z
m152 -9 c-4 -12 -8 -13 -14 -3 -9 15 -2 32 11 24 5 -3 6 -13 3 -21z m-888 6
c3 -6 -1 -7 -9 -4 -18 7 -21 14 -7 14 6 0 13 -4 16 -10z m-43 -23 c-7 -8 -9
-17 -5 -20 11 -11 23 -8 21 5 -2 7 7 13 19 14 12 1 20 -2 17 -7 -2 -4 -12 -5
-21 -2 -10 4 -14 2 -9 -5 3 -6 2 -13 -3 -17 -11 -6 -51 15 -51 28 0 4 5 5 10
2 6 -3 13 1 16 10 4 9 9 14 12 11 3 -3 0 -12 -6 -19z m908 -7 c0 -24 -10 -30
-35 -19 -18 9 -18 9 3 5 16 -3 22 1 22 14 0 13 -6 17 -22 14 -21 -4 -21 -4 -3
5 25 11 35 5 35 -19z m-803 -7 c0 -10 -4 -10 -16 -1 -9 7 -18 13 -20 15 -2 1
5 1 16 0 11 0 20 -7 20 -14z m-4 -28 c4 3 4 2 1 -2 -3 -5 -7 -6 -9 -3 -2 3
-11 -4 -20 -15 -16 -20 -16 -20 -6 1 7 15 7 25 -2 35 -7 7 -3 6 9 -4 11 -9 24
-15 27 -12z m747 21 c0 -2 -7 -7 -16 -10 -8 -3 -12 -2 -9 4 6 10 25 14 25 6z
m-864 -24 c-3 -3 2 -11 12 -18 16 -12 16 -15 0 -43 -9 -17 -13 -33 -9 -35 5
-3 13 5 18 17 6 13 20 23 34 24 13 0 18 -1 12 -4 -7 -2 -15 -4 -19 -3 -8 2
-47 -61 -41 -67 3 -2 14 8 26 23 11 15 21 22 21 17 0 -5 -11 -20 -25 -33 -13
-12 -22 -26 -20 -31 3 -4 1 -10 -5 -14 -6 -3 -12 0 -15 7 -10 25 -40 19 -41
-8 -2 -20 1 -23 12 -13 18 15 27 7 18 -15 -5 -14 -9 -15 -15 -4 -7 10 -9 10
-9 1 0 -7 1 -15 3 -16 1 -2 -4 -11 -12 -20 -15 -19 -41 -23 -41 -6 0 6 7 8 18
4 14 -5 15 -4 4 7 -11 11 -16 9 -29 -7 -12 -15 -14 -16 -10 -3 3 9 -1 22 -8
28 -12 10 -12 16 -3 34 7 11 11 25 10 29 -2 5 3 7 10 5 14 -5 24 -30 10 -26
-11 3 -13 -9 -5 -29 5 -14 24 -18 22 -5 -1 4 0 9 1 12 1 3 3 19 4 37 2 21 -1
30 -8 26 -6 -4 -5 1 2 10 10 12 11 20 2 34 -10 16 -10 16 -5 -4 3 -12 1 -24
-5 -28 -6 -3 -8 -11 -5 -16 4 -5 -6 -4 -20 3 -27 12 -27 12 -6 22 12 5 22 15
22 23 1 7 2 19 3 26 1 6 10 11 20 9 13 -3 17 1 13 12 -4 10 2 20 16 27 12 7
18 8 14 3 -4 -4 1 -13 11 -18 19 -11 19 -12 1 -41 -11 -16 -19 -23 -19 -15 0
13 -1 13 -10 0 -14 -22 -12 -29 7 -26 22 4 63 77 45 83 -7 3 -17 13 -22 24 -9
15 -8 17 5 13 9 -4 13 -9 11 -12z m49 -2 c-3 -5 -12 -10 -18 -10 -7 0 -6 4 3
10 19 12 23 12 15 0z m860 -8 c-3 -3 -11 0 -18 7 -9 10 -8 11 6 5 10 -3 15 -9
12 -12z m-845 -16 c0 -3 -4 -8 -10 -11 -5 -3 -10 -1 -10 4 0 6 5 11 10 11 6 0
10 -2 10 -4z m50 -10 c0 -2 -8 -10 -17 -17 -16 -13 -17 -12 -4 4 13 16 21 21
21 13z m797 -3 c-9 -8 -47 -11 -47 -4 0 5 11 9 25 9 14 0 24 -2 22 -5z m33
-49 c0 -16 -28 -26 -36 -13 -3 6 -3 13 0 16 3 4 6 1 6 -6 0 -7 5 -9 10 -6 8 5
7 11 -1 21 -6 7 -16 11 -22 7 -6 -3 -7 -1 -3 5 8 14 46 -6 46 -24z m-1020 -90
c0 -8 -19 -13 -24 -6 -3 5 1 9 9 9 8 0 15 -2 15 -3z m-52 -143 c-14 -23 -28
-28 -28 -10 0 12 32 40 38 34 2 -2 -3 -12 -10 -24z"/>
<path d="M774 1681 c1 -9 -6 -15 -16 -15 -14 1 -15 -2 -5 -17 11 -18 12 -17
25 6 15 29 24 33 16 8 -5 -15 -4 -16 5 -3 15 21 14 27 -8 33 -12 3 -18 -1 -17
-12z"/>
<path d="M720 1610 c-9 -6 -10 -10 -3 -10 6 0 15 5 18 10 8 12 4 12 -15 0z"/>
<path d="M801 1603 c-6 -10 -11 -13 -11 -7 0 6 -6 11 -13 11 -29 0 -12 -22 18
-23 24 -1 31 3 31 17 0 24 -12 24 -25 2z"/>
<path d="M700 1526 c0 -2 8 -10 18 -17 15 -13 16 -12 3 4 -13 16 -21 21 -21
13z"/>
<path d="M754 1515 c3 -23 12 -26 13 -5 1 11 -2 20 -7 20 -4 0 -7 -7 -6 -15z"/>
<path d="M1795 1770 c-4 -6 -1 -18 6 -26 9 -11 9 -18 1 -26 -14 -14 -16 -32
-3 -23 14 8 31 -28 26 -54 -2 -14 2 -24 11 -28 13 -5 13 -7 2 -14 -10 -7 -10
-9 1 -9 11 0 10 -4 -4 -14 -11 -8 -25 -12 -32 -9 -24 9 -13 -18 19 -50 18 -18
33 -35 33 -39 0 -4 10 -16 22 -28 22 -20 23 -20 20 -1 -2 11 -14 29 -28 40
-32 27 -15 27 22 0 16 -11 35 -18 42 -16 7 3 5 6 -5 6 -10 1 -22 10 -28 20
-16 30 -12 33 11 10 17 -17 23 -19 30 -8 12 20 11 23 -12 37 -15 10 -19 10
-14 1 5 -7 3 -10 -6 -7 -8 3 -13 11 -11 18 2 7 -4 20 -13 30 -8 9 -12 20 -8
23 9 10 25 9 19 -1 -2 -4 1 -14 7 -22 18 -22 67 -52 67 -40 0 5 -5 10 -11 10
-5 0 -7 5 -3 12 4 6 3 8 -3 5 -6 -4 -19 1 -29 9 -18 15 -18 15 3 11 15 -3 20
-1 16 9 -2 7 -12 10 -20 7 -12 -5 -14 -3 -8 7 6 9 4 11 -5 5 -10 -6 -12 -4 -8
7 4 9 -6 30 -22 50 -16 20 -26 38 -22 42 3 4 -2 4 -11 0 -10 -3 -17 -3 -16 2
4 21 -2 35 -11 29 -9 -6 -14 8 -11 28 2 10 -7 9 -14 -3z m31 -48 c-3 -5 8 -19
25 -31 16 -12 27 -26 24 -30 -3 -5 3 -12 12 -15 14 -6 14 -9 -5 -29 -18 -19
-19 -26 -9 -36 6 -6 12 -28 12 -47 0 -28 -2 -32 -11 -20 -8 11 -14 12 -21 5
-15 -15 -34 -2 -26 18 4 10 2 14 -5 9 -6 -3 -14 -2 -17 4 -4 6 -3 9 2 8 4 -1
18 3 30 10 23 13 25 38 2 53 -10 6 -10 9 -1 9 6 0 12 5 12 11 0 5 -6 7 -12 3
-9 -5 -9 -2 1 9 11 14 11 17 0 17 -11 0 -11 2 1 10 13 8 13 10 -1 10 -17 0
-32 24 -22 34 9 9 15 7 9 -2z m109 -202 c3 -5 -1 -10 -10 -10 -9 0 -13 5 -10
10 3 6 8 10 10 10 2 0 7 -4 10 -10z m-50 -58 c-3 -3 -11 0 -18 7 -9 10 -8 11
6 5 10 -3 15 -9 12 -12z"/>
<path d="M1855 1650 c2 -38 9 -45 26 -23 9 11 10 14 2 9 -7 -4 -14 -2 -14 3
-3 26 -4 30 -10 35 -3 3 -5 -8 -4 -24z"/>
<path d="M1854 1566 c-3 -9 -11 -13 -18 -9 -6 4 -5 -1 3 -10 11 -13 11 -17 1
-17 -8 0 -10 -3 -7 -6 4 -4 13 -2 20 4 8 7 16 10 18 7 3 -2 5 5 6 15 2 25 -15
36 -23 16z m7 -19 c-10 -9 -11 -8 -5 6 3 10 9 15 12 12 3 -3 0 -11 -7 -18z"/>
<path d="M78 1612 l-28 -3 0 -198 0 -198 100 0 100 0 0 199 c0 109 -3 198 -7
199 -34 3 -143 3 -165 1z"/>
<path d="M632 1524 c-7 -8 -8 -14 -3 -14 10 0 25 19 20 25 -2 1 -10 -3 -17
-11z"/>
<path d="M1982 1520 c0 -14 2 -19 5 -12 2 6 2 18 0 25 -3 6 -5 1 -5 -13z"/>
<path d="M593 1505 c0 -8 4 -15 9 -15 4 0 8 4 8 9 0 6 -4 12 -8 15 -5 3 -9 -1
-9 -9z"/>
<path d="M1957 1503 c-10 -9 -9 -33 1 -33 4 0 8 9 9 20 2 21 0 24 -10 13z"/>
<path d="M615 1480 c-3 -5 -3 -10 2 -10 4 0 1 -5 -7 -11 -13 -9 -13 -10 0 -6
8 2 14 10 12 17 -2 8 4 11 18 7 11 -3 20 -1 20 4 0 12 -37 11 -45 -1z"/>
<path d="M1976 1463 c-10 -10 -7 -33 4 -33 5 0 7 7 4 15 -5 11 -2 13 10 9 9
-3 16 -4 16 -1 0 8 -28 16 -34 10z"/>
<path d="M2026 1462 c-3 -5 1 -9 9 -9 8 0 15 4 15 9 0 4 -4 8 -9 8 -6 0 -12
-4 -15 -8z"/>
<path d="M635 1449 c-11 -16 -1 -19 13 -3 7 8 8 14 3 14 -5 0 -13 -5 -16 -11z"/>
<path d="M1913 1446 c3 -7 0 -19 -6 -25 -9 -9 -8 -11 5 -6 17 7 21 45 5 45 -5
0 -7 -6 -4 -14z"/>
<path d="M1941 1444 c0 -11 3 -14 6 -6 3 7 2 16 -1 19 -3 4 -6 -2 -5 -13z"/>
<path d="M598 1412 c4 -10 7 -12 10 -4 2 7 9 9 15 5 7 -3 8 -2 4 2 -14 16 -36
14 -29 -3z"/>
<path d="M573 1405 c0 -8 4 -12 9 -9 5 3 6 10 3 15 -9 13 -12 11 -12 -6z"/>
<path d="M1948 1413 c6 -2 18 -2 25 0 6 3 1 5 -13 5 -14 0 -19 -2 -12 -5z"/>
<path d="M1917 1404 c-3 -4 1 -13 9 -21 19 -20 26 -13 10 9 -7 10 -16 15 -19
12z"/>
<path d="M1980 1400 c-12 -7 -10 -9 7 -7 12 0 19 5 17 9 -6 10 -6 10 -24 -2z"/>
<path d="M632 1386 c7 -8 15 -12 17 -11 5 6 -10 25 -20 25 -5 0 -4 -6 3 -14z"/>
<path d="M2029 1383 c-13 -16 -12 -17 4 -4 16 13 21 21 13 21 -2 0 -10 -8 -17
-17z"/>
<path d="M580 1355 c-19 -22 -8 -25 13 -3 9 10 13 18 8 18 -5 0 -14 -7 -21
-15z"/>
<path d="M2016 1333 c-6 -14 -5 -15 5 -6 7 7 10 15 7 18 -3 3 -9 -2 -12 -12z"/>
<path d="M1981 1317 c2 -1 13 -9 24 -17 19 -14 19 -14 6 3 -7 9 -18 17 -24 17
-6 0 -8 -1 -6 -3z"/>
<path d="M556 1298 c3 -5 10 -6 15 -3 13 9 11 12 -6 12 -8 0 -12 -4 -9 -9z"/>
<path d="M515 1280 c-3 -5 -1 -10 4 -10 6 0 11 5 11 10 0 6 -2 10 -4 10 -3 0
-8 -4 -11 -10z"/>
<path d="M470 1216 c0 -2 8 -10 18 -17 15 -13 16 -12 3 4 -13 16 -21 21 -21
13z"/>
</g>
</svg>
